<svg width="22" height="20" viewBox="0 0 22 20" fill="none" xmlns="http://www.w3.org/2000/svg">
<path d="M15.1 10.3001L13.65 8.8501C13.8 8.06676 13.575 7.33343 12.975 6.6501C12.375 5.96676 11.6 5.7001 10.65 5.8501L9.20005 4.4001C9.48338 4.26676 9.77088 4.16676 10.0625 4.1001C10.3542 4.03343 10.6667 4.0001 11 4.0001C12.25 4.0001 13.3125 4.4376 14.1875 5.3126C15.0625 6.1876 15.5 7.2501 15.5 8.5001C15.5 8.83343 15.4667 9.14593 15.4 9.4376C15.3334 9.72927 15.2334 10.0168 15.1 10.3001ZM18.3 13.4501L16.85 12.0501C17.4834 11.5668 18.0459 11.0376 18.5375 10.4626C19.0292 9.8876 19.45 9.23343 19.8 8.5001C18.9667 6.81676 17.7709 5.47926 16.2125 4.4876C14.6542 3.49593 12.9167 3.0001 11 3.0001C10.5167 3.0001 10.0417 3.03343 9.57505 3.1001C9.10838 3.16676 8.65005 3.26676 8.20005 3.4001L6.65005 1.8501C7.33338 1.56676 8.03338 1.35426 8.75005 1.2126C9.46671 1.07093 10.2167 1.0001 11 1.0001C13.3834 1.0001 15.525 1.62926 17.425 2.8876C19.325 4.14593 20.75 5.78343 21.7 7.8001C21.75 7.88343 21.7834 7.9876 21.8 8.1126C21.8167 8.2376 21.825 8.36677 21.825 8.5001C21.825 8.63343 21.8125 8.7626 21.7875 8.8876C21.7626 9.0126 21.7334 9.11677 21.7 9.2001C21.3167 10.0501 20.8375 10.8334 20.2625 11.5501C19.6875 12.2668 19.0334 12.9001 18.3 13.4501ZM18.1 18.9001L14.6 15.4501C14.0167 15.6334 13.4292 15.7709 12.8375 15.8626C12.2459 15.9543 11.6334 16.0001 11 16.0001C8.61672 16.0001 6.47505 15.3709 4.57505 14.1126C2.67505 12.8543 1.25005 11.2168 0.300049 9.2001C0.250049 9.11677 0.216715 9.0126 0.200049 8.8876C0.183382 8.7626 0.175049 8.63343 0.175049 8.5001C0.175049 8.36677 0.183382 8.24176 0.200049 8.1251C0.216715 8.00843 0.250049 7.90843 0.300049 7.8251C0.650049 7.0751 1.06672 6.38343 1.55005 5.7501C2.03338 5.11676 2.56672 4.53343 3.15005 4.0001L1.07505 1.9001C0.891716 1.71676 0.800049 1.4876 0.800049 1.2126C0.800049 0.937598 0.900049 0.700098 1.10005 0.500098C1.28338 0.316764 1.51672 0.225098 1.80005 0.225098C2.08338 0.225098 2.31672 0.316764 2.50005 0.500098L19.5 17.5001C19.6834 17.6834 19.7792 17.9126 19.7875 18.1876C19.7959 18.4626 19.7001 18.7001 19.5 18.9001C19.3167 19.0834 19.0834 19.1751 18.8 19.1751C18.5167 19.1751 18.2834 19.0834 18.1 18.9001ZM4.55005 5.4001C4.06672 5.83343 3.62505 6.30843 3.22505 6.8251C2.82505 7.34176 2.48338 7.9001 2.20005 8.5001C3.03338 10.1834 4.22922 11.5209 5.78755 12.5126C7.34588 13.5043 9.08338 14.0001 11 14.0001C11.3334 14.0001 11.6584 13.9793 11.975 13.9376C12.2917 13.8959 12.6167 13.8501 12.95 13.8001L12.05 12.8501C11.8667 12.9001 11.6917 12.9376 11.525 12.9626C11.3584 12.9876 11.1834 13.0001 11 13.0001C9.75005 13.0001 8.68755 12.5626 7.81255 11.6876C6.93755 10.8126 6.50005 9.7501 6.50005 8.5001C6.50005 8.31676 6.51255 8.14176 6.53755 7.9751C6.56255 7.80843 6.60005 7.63343 6.65005 7.4501L4.55005 5.4001Z" fill="#A8A8A8"/>
</svg>
