<svg width="22" height="15" viewBox="0 0 22 15" fill="none" xmlns="http://www.w3.org/2000/svg">
<path d="M11 12C12.25 12 13.3125 11.5625 14.1875 10.6875C15.0625 9.8125 15.5 8.75 15.5 7.5C15.5 6.25 15.0625 5.1875 14.1875 4.3125C13.3125 3.4375 12.25 3 11 3C9.75005 3 8.68755 3.4375 7.81255 4.3125C6.93755 5.1875 6.50005 6.25 6.50005 7.5C6.50005 8.75 6.93755 9.8125 7.81255 10.6875C8.68755 11.5625 9.75005 12 11 12ZM11 10.2C10.25 10.2 9.61255 9.9375 9.08755 9.4125C8.56255 8.8875 8.30005 8.25 8.30005 7.5C8.30005 6.75 8.56255 6.1125 9.08755 5.5875C9.61255 5.0625 10.25 4.8 11 4.8C11.75 4.8 12.3875 5.0625 12.9125 5.5875C13.4375 6.1125 13.7 6.75 13.7 7.5C13.7 8.25 13.4375 8.8875 12.9125 9.4125C12.3875 9.9375 11.75 10.2 11 10.2ZM11 15C8.68338 15 6.56672 14.3875 4.65005 13.1625C2.73338 11.9375 1.28338 10.2833 0.300049 8.2C0.250049 8.11667 0.216715 8.0125 0.200049 7.8875C0.183382 7.7625 0.175049 7.63333 0.175049 7.5C0.175049 7.36667 0.183382 7.2375 0.200049 7.1125C0.216715 6.9875 0.250049 6.88333 0.300049 6.8C1.28338 4.71667 2.73338 3.0625 4.65005 1.8375C6.56672 0.6125 8.68338 0 11 0C13.3167 0 15.4334 0.6125 17.35 1.8375C19.2667 3.0625 20.7167 4.71667 21.7 6.8C21.75 6.88333 21.7834 6.9875 21.8 7.1125C21.8167 7.2375 21.825 7.36667 21.825 7.5C21.825 7.63333 21.8167 7.7625 21.8 7.8875C21.7834 8.0125 21.75 8.11667 21.7 8.2C20.7167 10.2833 19.2667 11.9375 17.35 13.1625C15.4334 14.3875 13.3167 15 11 15ZM11 13C12.8834 13 14.6125 12.5042 16.1875 11.5125C17.7626 10.5208 18.9667 9.18333 19.8 7.5C18.9667 5.81667 17.7626 4.47917 16.1875 3.4875C14.6125 2.49583 12.8834 2 11 2C9.11672 2 7.38755 2.49583 5.81255 3.4875C4.23755 4.47917 3.03338 5.81667 2.20005 7.5C3.03338 9.18333 4.23755 10.5208 5.81255 11.5125C7.38755 12.5042 9.11672 13 11 13Z" fill="#A8A8A8"/>
</svg>
